<?xml version="1.0" encoding="UTF-8"?>
<svg id="Layer_1" xmlns="http://www.w3.org/2000/svg" version="1.1" viewBox="0 0 24 50">
  <!-- Generator: Adobe Illustrator 29.6.0, SVG Export Plug-In . SVG Version: 2.1.1 Build 207)  -->
  <defs>
    <style>
      .st0 {
        fill: #d1d3d4;
      }

      .st1 {
        opacity: .3;
      }
    </style>
  </defs>
  <g class="st1">
    <path class="st0" d="M12,24C5.4,24,0,18.6,0,12S5.4,0,12,0s12,5.4,12,12-5.4,12-12,12ZM12,1C5.9,1,1,5.9,1,12s4.9,11,11,11,11-4.9,11-11S18.1,1,12,1Z"/>
  </g>
  <g class="st1">
    <path class="st0" d="M12,50c-6.6,0-12-5.4-12-12s5.4-12,12-12,12,5.4,12,12-5.4,12-12,12ZM12,27c-6.1,0-11,4.9-11,11s4.9,11,11,11,11-4.9,11-11-4.9-11-11-11Z"/>
  </g>
</svg>