<svg width="232" height="48" viewBox="0 0 232 48" fill="none" xmlns="http://www.w3.org/2000/svg">
<path d="M24.4837 45.2898C36.1021 45.2898 45.5208 35.8945 45.5208 24.3048C45.5208 12.715 36.1021 3.31973 24.4837 3.31973C12.8652 3.31973 3.44653 12.715 3.44653 24.3048C3.44653 35.8945 12.8652 45.2898 24.4837 45.2898Z" fill="white"/>
<path d="M26.7096 11.8095C24.7019 14.7701 22.6506 17.8177 20.6865 20.8218C22.6942 19.9075 24.6583 19.1238 26.7969 18.6014C26.7096 16.2939 26.7096 14.0299 26.7096 11.8095Z" fill="#EE2C38"/>
<path d="M8.02935 26.7429C8.42215 26.8299 9.03319 26.5687 9.426 26.4381C11.1282 25.8286 12.6994 25.0014 14.3143 24.1306C12.3939 23.6082 10.168 23.6082 8.64038 24.9143C8.24757 25.2191 7.0255 26.5252 8.02935 26.7429Z" fill="#EE2C38"/>
<path d="M27.5388 32.0109C27.0587 28.1796 26.9278 24.3918 26.7532 20.5605C23.9162 21.2571 21.2539 22.3891 18.7224 23.7823C22.3013 25.698 25.3129 28.5714 27.4952 32.0109H27.5388Z" fill="#EE2C38"/>
<path d="M24.0909 0.751022C11.2591 0.751022 0.78418 11.2 0.78418 24C0.78418 36.8 11.2591 47.249 24.0909 47.249C36.9226 47.249 47.3976 36.8 47.3976 24C47.3976 11.2 37.0099 0.751022 24.0909 0.751022ZM38.9303 31.3143C38.9303 32.3156 38.1011 33.0122 37.1845 33.0558C36.268 33.0993 35.4387 32.2286 35.4387 31.3143V30.8354C35.4387 29.834 36.268 29.1374 37.1845 29.0939C38.1011 29.0503 38.9303 29.9211 38.9303 30.8354V31.3143ZM40.2397 20.9524C36.5735 19.5592 32.6017 19.4286 28.7609 20.1252V21.7361C28.9355 26.2204 29.241 30.7483 29.8957 35.1456C30.0703 36.2776 30.2885 37.366 30.5068 38.4109C30.594 38.6286 30.6813 38.8898 30.6813 39.0204C30.6813 39.2381 30.6813 39.5429 30.5068 39.8041C30.1139 40.4136 29.1974 40.5878 28.8046 39.8912C28.4118 39.2816 28.3245 38.2803 28.019 37.5837C27.7134 36.8 27.4079 36.0599 27.0151 35.2762C26.1859 33.5782 25.182 32.0109 23.9599 30.6177C22.2141 28.4844 19.9009 26.6558 17.4568 25.3497C15.4491 28.3102 13.485 31.3143 11.4773 34.2748C10.9972 34.7973 10.037 35.0585 9.7315 34.1007C9.51328 33.4912 10.1243 32.8816 10.4298 32.4027C11.0409 31.4884 11.6519 30.5742 12.2629 29.6599C13.1795 28.2667 14.0961 27.0041 15.0126 25.6109C13.8778 26.3075 12.6558 27.0041 11.4337 27.6136C10.2116 28.2231 8.46579 29.0068 6.98184 28.615C5.75977 28.3102 5.36696 27.0912 5.67247 25.9592C5.97799 24.7401 6.80726 23.6517 7.89839 22.9986C10.5171 21.1701 13.8778 21.5619 16.6711 22.6068C16.8457 22.5197 17.0639 22.4327 17.1949 22.302C19.3335 19.0803 21.4721 15.902 23.6108 12.6803L25.5312 9.76327C25.924 9.15374 26.3168 8.32653 26.9278 7.76055C27.7134 7.06395 28.5427 7.5864 28.63 8.54422C28.8046 11.6789 28.7173 14.8571 28.7173 17.9918C32.2962 17.3823 36.0497 17.4694 39.585 18.4707C40.4143 18.6884 41.6364 18.9497 42.3347 19.4721C42.6402 19.6898 42.7275 20.0816 42.5529 20.4735C42.0292 21.7796 41.0253 21.2571 40.1961 20.9524H40.2397Z" fill="#EE2C38"/>
<path d="M67.9983 13.551H70.617L79.6517 34.5361H76.3782L74.2396 29.3551H64.2448L62.1935 34.5361H58.92C58.8328 34.5361 68.0856 13.551 68.0856 13.551H67.9983ZM73.1048 26.8299L69.2204 17.2082H69.1331L65.1614 26.8299H73.1048Z" fill="#231F20"/>
<path d="M85.3255 13.551V26.351C85.3255 26.9605 85.4128 27.6571 85.5437 28.3973C85.7183 29.0939 86.0238 29.7905 86.4603 30.3129C86.8531 30.9224 87.3768 31.4014 88.0751 31.7497C88.7735 32.098 89.6027 32.2721 90.6066 32.2721C91.6104 32.2721 92.4397 32.098 93.138 31.7497C93.8364 31.4014 94.3601 30.9224 94.7529 30.3129C95.1457 29.7034 95.4512 29.0939 95.6695 28.3973C95.844 27.7007 95.8877 27.0041 95.8877 26.351V13.551H98.7246V26.8299C98.7246 28.049 98.5064 29.181 98.1136 30.1823C97.7208 31.1837 97.1098 32.0109 96.4114 32.7946C95.6258 33.5782 94.7966 34.1007 93.7927 34.4925C92.7889 34.8844 91.7414 35.102 90.5629 35.102C89.3845 35.102 88.337 34.8844 87.3332 34.4925C86.3293 34.1007 85.5001 33.5782 84.8017 32.7946C84.1034 32.0109 83.4924 31.1837 83.0996 30.1823C82.7068 29.181 82.4885 28.049 82.4885 26.8299V13.551H85.2382H85.3255Z" fill="#231F20"/>
<path d="M108.72 16.2068H101.911V13.551H118.278V16.2068H111.644V34.4925H108.807L108.72 16.2068Z" fill="#231F20"/>
<path d="M121.944 13.551H124.781V22.2585H135.649V13.551H138.486V34.5361H135.649V24.9143H124.781V34.5361H121.944V13.551Z" fill="#231F20"/>
<path d="M144.596 13.551H158.126V16.2068H147.433V22.4762H157.384V25.132H147.433V31.8367H158.65V34.4925H144.596V13.5075V13.551Z" fill="#231F20"/>
<path d="M163.32 13.551H167.074L178.596 30.7918H178.683V13.551H181.52V34.5361H177.941L166.244 17.2952H166.157V34.5361H163.32V13.551Z" fill="#231F20"/>
<path d="M191.908 16.2068H185.099V13.551H201.466V16.2068H194.657V34.4925H191.908V16.2068Z" fill="#231F20"/>
<path d="M205.132 13.551H207.969V34.5361H205.132V13.551Z" fill="#231F20"/>
<path d="M228.614 18.0354C228.002 17.2517 227.217 16.6422 226.3 16.2939C225.384 15.9456 224.467 15.6844 223.463 15.6844C222.459 15.6844 221.15 15.902 220.234 16.381C219.317 16.8599 218.488 17.4694 217.789 18.2095C217.091 18.9497 216.567 19.9075 216.175 20.8653C215.782 21.9537 215.651 22.9986 215.651 24.2177C215.651 25.4367 215.825 26.351 216.175 27.3524C216.524 28.3537 217.004 29.181 217.702 29.9646C218.4 30.7483 219.23 31.3578 220.146 31.7061C221.063 32.0544 222.198 32.3156 223.42 32.3156C224.642 32.3156 225.733 32.098 226.562 31.532C227.391 30.966 228.264 30.4 228.875 29.4857L231.232 31.3143C231.058 31.532 230.752 31.8367 230.403 32.2286C230.054 32.6204 229.486 33.0558 228.788 33.4476C228.09 33.8395 227.348 34.2313 226.431 34.5361C225.515 34.8408 224.424 35.015 223.201 35.015C221.979 35.015 220.059 34.7102 218.706 34.1007C217.353 33.4912 216.262 32.6639 215.258 31.5755C214.341 30.5742 213.556 29.3551 213.119 28.049C212.639 26.7429 212.334 25.4367 212.334 24.1742C212.334 22.9116 212.639 21.0395 213.119 19.6898C213.643 18.2966 214.429 17.0776 215.345 16.1197C216.262 15.1184 217.484 14.3782 218.793 13.8122C220.19 13.2898 221.63 12.985 223.245 12.985C224.86 12.985 225.995 13.2898 227.304 13.7687C228.701 14.2912 229.748 15.1619 230.578 16.2068L228.57 18.1224L228.614 18.0354Z" fill="#231F20"/>
</svg>
