<?xml version="1.0" encoding="UTF-8"?>
<svg id="Layer_1" xmlns="http://www.w3.org/2000/svg" version="1.1" viewBox="0 0 166.5 83.1">
  <!-- Generator: Adobe Illustrator 29.6.0, SVG Export Plug-In . SVG Version: 2.1.1 Build 207)  -->
  <defs>
    <style>
      .st0 {
        fill: #faa400;
      }

      .st1 {
        fill: #fff;
      }

      .st2 {
        fill: #f42534;
      }

      .st3 {
        fill: #007481;
      }

      .st4 {
        fill: #00b4ad;
      }
    </style>
  </defs>
  <path class="st3" d="M41.6,41.6c0,22.9-18.7,41.6-41.6,41.6v-41.6h41.6Z"/>
  <path class="st2" d="M41.6,41.6H0V0c23,0,41.6,18.6,41.6,41.6Z"/>
  <path class="st1" d="M83.3,41.6v41.6c-23,0-41.6-18.6-41.6-41.6h41.6Z"/>
  <path class="st2" d="M83.3,0v41.6c-23,0-41.6-18.6-41.6-41.6h41.6Z"/>
  <path class="st0" d="M124.9,41.6v41.6c-23,0-41.6-18.6-41.6-41.6h41.6Z"/>
  <path class="st3" d="M166.5,41.6v41.6c-23,0-41.6-18.6-41.6-41.6h41.6Z"/>
  <path class="st4" d="M166.5,41.6h-41.6V0c23,0,41.6,18.6,41.6,41.6Z"/>
</svg>