<?xml version="1.0" encoding="UTF-8"?>
<svg id="Layer_1" xmlns="http://www.w3.org/2000/svg" version="1.1" viewBox="0 0 80 80">
  <!-- Generator: Adobe Illustrator 29.6.0, SVG Export Plug-In . SVG Version: 2.1.1 Build 207)  -->
  <defs>
    <style>
      .st0 {
        fill: #fff;
      }
    </style>
  </defs>
  <path class="st0" d="M40,14.8h0s0,0,0,0c-13.9,0-25.2,11.3-25.2,25.2s11.3,25.2,25.2,25.2c0,0,0,0,0,0h0c13.9,0,25.2-11.3,25.2-25.2s-11.3-25.2-25.2-25.2h0ZM39.2,16.4v15.5c-3.9.4-7,3.5-7.3,7.3h-4c.2-12.2,5.2-22.1,11.4-22.9ZM34.5,17c-4.7,3.8-8,12.3-8.1,22.3h-10c.3-10.8,8-19.8,18.1-22.3ZM16.3,40.8h10c.2,9.9,3.4,18.4,8.1,22.3-10.2-2.4-17.8-11.4-18.1-22.3ZM39.2,63.6c-6.2-.7-11.2-10.7-11.4-22.9h4c.4,3.9,3.5,7,7.3,7.3v15.5ZM40.8,63.6v-15.5c3.9-.4,7-3.5,7.3-7.3h4c-.2,12.2-5.2,22.1-11.4,22.9ZM45.5,63c4.7-3.8,8-12.3,8.1-22.3h10c-.3,10.8-8,19.8-18.1,22.3ZM63.6,39.2h-10c-.2-9.9-3.4-18.4-8.1-22.3,10.2,2.4,17.8,11.4,18.1,22.3ZM40.8,31.9v-15.5c6.2.7,11.2,10.7,11.4,22.9h-4c0-.3,0-.6-.1-.9l-1.5.3c0,.5.1.9.1,1.3,0,3.7-3,6.6-6.6,6.6s-6.6-3-6.6-6.6,3-6.6,6.6-6.6,2.6.4,3.7,1.1l.8-1.2c-1.1-.8-2.4-1.2-3.8-1.3Z"/>
  <polygon class="st0" points="46.3 5.3 45.3 4.2 40.8 8.8 40.8 0 39.2 0 39.2 8.8 34.7 4.2 33.7 5.3 40 11.6 46.3 5.3"/>
  <polygon class="st0" points="33.7 74.7 34.7 75.8 39.2 71.2 39.2 80 40.8 80 40.8 71.2 45.3 75.8 46.3 74.7 40 68.4 33.7 74.7"/>
  <polygon class="st0" points="71.2 39.2 75.8 34.7 74.7 33.7 68.4 40 74.7 46.3 75.8 45.3 71.2 40.8 80 40.8 80 39.2 71.2 39.2"/>
  <polygon class="st0" points="4.2 45.3 5.3 46.3 11.6 40 5.3 33.7 4.2 34.7 8.8 39.2 0 39.2 0 40.8 8.8 40.8 4.2 45.3"/>
  <polygon class="st0" points="37 38 35.9 39 39.9 43.1 47.5 35.5 46.4 34.4 39.9 41 37 38"/>
  <path class="st0" d="M77.1,32.5l1.5-.3c-3.1-15.5-15.2-27.6-30.7-30.7l-.3,1.5c14.9,3,26.5,14.6,29.5,29.5Z"/>
  <path class="st0" d="M32.5,2.9l-.3-1.5C16.6,4.6,4.6,16.6,1.5,32.2l1.5.3C5.9,17.5,17.5,5.9,32.5,2.9Z"/>
  <path class="st0" d="M47.5,77.1l.3,1.5c15.5-3.1,27.6-15.2,30.7-30.7l-1.5-.3c-3,14.9-14.6,26.5-29.5,29.5Z"/>
  <path class="st0" d="M2.9,47.5l-1.5.3c3.1,15.5,15.2,27.6,30.7,30.7l.3-1.5c-14.9-3-26.5-14.6-29.5-29.5Z"/>
</svg>