<?xml version="1.0" encoding="UTF-8"?>
<svg id="Layer_1" xmlns="http://www.w3.org/2000/svg" version="1.1" viewBox="0 0 144.4 349.2">
  <!-- Generator: Adobe Illustrator 29.6.0, SVG Export Plug-In . SVG Version: 2.1.1 Build 207)  -->
  <defs>
    <style>
      .st0 {
        fill: none;
      }

      .st1 {
        fill: rgba(209, 211, 212, 0.3);
      }

      .st2 {
        fill: #0c00ff;
      }

      .st3 {
        fill: #ae44f2;
      }
    </style>
  </defs>
  <polygon class="st0" points="139.2 42.4 71 3.6 37.8 22.1 106.3 61.1 139.2 42.4"/>
  <path class="st0" d="M71.7,123.1l69.6-40.2v-38.1l-69.5,39.6c0,4.1,0,21,0,38.6Z"/>
  <polygon class="st0" points="103.2 63 34.6 23.9 1.3 42.4 70.3 81.7 103.2 63"/>
  <path class="st0" d="M141.3,86.5l-69.6,40.2c0,14.9,0,29.7,0,37.2l69.5-38.7v-38.7Z"/>
  <path class="st0" d="M68.6,84.4l-33-18.8c-.1,11.5,0,54.6,0,79l32.9,18.7c0-9.9-.1-36.1-.1-55.9s0-20,0-23Z"/>
  <path class="st0" d="M105.1,210c0-10.5,0-19.1,0-22.3l-32.9-18.8v78.9l32.9,18.9c0-8.6-.1-36.3-.1-56.8Z"/>
  <path class="st0" d="M69.1,330.4c0-3,0-12,0-23,0-19.9,0-46.4.1-56.1l-32.9,19c0,24.4-.2,67.4,0,78.9h0l32.9-18.8Z"/>
  <path class="st0" d="M72.2,288.2l69.1,39.9v-36.9l-69-39.6c0,7.6,0,22.1,0,36.6Z"/>
  <path class="st0" d="M108.3,268.6l32.9,18.9c0-9.7-.1-36.2-.1-56.2s0-20,0-23l-33-18.8c-.1,11.5,0,54.7,0,79.1Z"/>
  <path class="st0" d="M36.2,349.2h0s0,0,0,0h0Z"/>
  <polygon class="st2" points="0 250.5 0 250.6 0 250.6 0 250.6 0 250.5"/>
  <path class="st1" d="M36.2,270.3l32.9-19c0,9.7-.1,36.2-.1,56.1s0,20,0,23l-32.9,18.8h6.3l28.2-16.1,28.2,16.1h6.3l-33-18.8c0-4.1,0-21,0-38.6l69.1,39.9v17.5h3.1v-61.7h0c0-7.5,0-22.2,0-36.9h0v-3.7h-.1c0-17.5,0-34.4,0-38.5h0v-3.6l-1.5.9-69-39.3,33.3-18.5,37.2,21.2v-3.6l-34-19.4,33.2-18.5.8.5V40.2l-1.4.8L71,0,0,39.5v5.8l32.6,18.6c0,3.2,0,11.8,0,22.3,0,20.4,0,47.9.1,56.7l-20.9-11.9-11.7-6.7v3.7l10.1,5.7,57.2,32.8-32.6,18.6L0,165.3v3.6l31.4,17.9L0,204.8v3.6s0,0,0,0l69-39.4v38.1L.6,246.6l-.5.4v3.6s69.1-39.9,69.1-39.9v37L.1,287.5v3.6s32.9-19,32.9-19c0,8.9-.1,36.2-.1,56.6s0,16.5,0,20.5h3.1c-.1-11.5,0-54.5,0-78.9ZM141.3,82.9l-69.6,40.2c0-17.6,0-34.5,0-38.6l69.5-39.6v38.1ZM71,3.6l68.2,38.8-32.9,18.8L37.8,22.1,71,3.6ZM1.3,42.4l33.3-18.5,68.6,39.1-32.9,18.8L1.3,42.4ZM35.7,144.6c0-24.4-.2-67.5,0-79l33,18.8c0,3,0,12,0,23,0,19.8,0,46,.1,55.9l-32.9-18.7ZM71.7,126.7l69.6-40.2v38.7l-69.5,38.7c0-7.5,0-22.3,0-37.2ZM141.3,291.1v36.9l-69.1-39.9c0-14.5,0-29,0-36.6l69,39.6ZM141.2,208.3c0,3,0,12,0,23,0,19.9,0,46.5.1,56.2l-32.9-18.9c0-24.4-.2-67.6,0-79.1l33,18.8ZM72.3,169l32.9,18.8c0,3.2,0,11.8,0,22.3,0,20.5,0,48.1.1,56.8l-32.9-18.9v-78.9Z"/>
  <polygon class="st3" points="0 246.9 0 247 .6 246.6 0 246.9"/>
  <path class="st3" d="M0,250.6h0"/>
</svg>