<?xml version="1.0" encoding="UTF-8"?>
<svg id="Layer_1" xmlns="http://www.w3.org/2000/svg" version="1.1" viewBox="0 0 349.2 144.4">
  <!-- Generator: Adobe Illustrator 29.6.0, SVG Export Plug-In . SVG Version: 2.1.1 Build 207)  -->
  <defs>
    <style>
      .st0 {
        fill: none;
      }

      .st1 {
        fill: rgba(209, 211, 212, 0.3);
      }

      .st2 {
        fill: #0c00ff;
      }

      .st3 {
        fill: #ae44f2;
      }
    </style>
  </defs>
  <polygon class="st0" points="42.4 5.2 3.6 73.4 22.1 106.6 61.1 38.1 42.4 5.2"/>
  <path class="st0" d="M123.1,72.7L82.9,3.1h-38.1l39.6,69.5c4.1,0,21,0,38.6,0Z"/>
  <polygon class="st0" points="63 41.2 23.9 109.8 42.4 143.1 81.7 74.1 63 41.2"/>
  <path class="st0" d="M86.5,3.1l40.2,69.6c14.9,0,29.7,0,37.2,0L125.2,3.1h-38.7Z"/>
  <path class="st0" d="M84.4,75.8l-18.8,33c11.5.1,54.6,0,79,0l18.7-32.9c-9.9,0-36.1.1-55.9.1s-20,0-23,0Z"/>
  <path class="st0" d="M210,39.3c-10.5,0-19.1,0-22.3,0l-18.8,32.9h78.9l18.9-32.9c-8.6,0-36.3.1-56.8.1Z"/>
  <path class="st0" d="M330.4,75.3c-3,0-12,0-23,0-19.9,0-46.4,0-56.1-.1l19,32.9c24.4,0,67.4.2,78.9,0h0s-18.8-33-18.8-33Z"/>
  <path class="st0" d="M288.2,72.3L328,3.1h-36.9l-39.6,69c7.6,0,22.1,0,36.6,0Z"/>
  <path class="st0" d="M268.6,36.1l18.9-32.9c-9.7,0-36.2.1-56.2.1s-20,0-23,0l-18.8,33c11.5.1,54.7,0,79.1,0Z"/>
  <path class="st0" d="M349.2,108.3h0s0,0,0,0h0Z"/>
  <polygon class="st2" points="250.5 144.4 250.6 144.4 250.6 144.4 250.6 144.4 250.5 144.4"/>
  <path class="st1" d="M270.3,108.2l-19-32.9c9.7,0,36.2.1,56.1.1s20,0,23,0l18.8,32.9v-6.3l-16.1-28.2,16.1-28.2v-6.3l-18.8,33c-4.1,0-21,0-38.6,0L331.7,3.1h17.5V0h-61.7,0c-7.6,0-22.2,0-36.9,0h0c0,0-3.6,0-3.6,0h0c-17.6.1-34.5.1-38.6,0h0s-3.6,0-3.6,0l.9,1.5-39.3,69-18.5-33.3L169,0h-3.6l-19.4,34L127.5.8l.5-.8H40.2l.8,1.4L0,73.4l39.5,71h5.8l18.6-32.6c3.2,0,11.8,0,22.3,0,20.4,0,47.9,0,56.7-.1l-11.9,20.9-6.7,11.7h3.7l5.7-10.1,32.8-57.2,18.6,32.6-19.7,34.6h3.6l17.9-31.4,17.9,31.4h3.6s0,0,0,0l-39.4-69h38.1l39.6,68.5.4.5h3.6s-39.9-69.1-39.9-69.1h37l39.8,69h3.6s-19-32.9-19-32.9c8.9,0,36.2.1,56.6.1s16.5,0,20.5,0v-3.1c-11.5.1-54.5,0-78.9,0ZM82.9,3.1l40.2,69.6c-17.6,0-34.5,0-38.6,0L44.8,3.1h38.1ZM3.6,73.4L42.4,5.2l18.8,32.9L22.1,106.6,3.6,73.4ZM42.4,143.1l-18.5-33.3L63,41.2l18.8,32.9-39.3,69ZM144.6,108.7c-24.4,0-67.5.2-79,0l18.8-33c3,0,12,0,23,0,19.8,0,46,0,55.9-.1l-18.7,32.9ZM126.7,72.7L86.5,3.1h38.7l38.7,69.5c-7.5,0-22.3,0-37.2,0ZM291.1,3.1h36.9l-39.9,69.1c-14.5,0-29,0-36.6,0L291.1,3.1ZM208.3,3.2c3,0,12,0,23,0,19.9,0,46.5,0,56.2-.1l-18.9,32.9c-24.4,0-67.6.2-79.1,0L208.3,3.2ZM169,72.2l18.8-32.9c3.2,0,11.8,0,22.3,0,20.5,0,48.1,0,56.8-.1l-18.9,32.9h-78.9Z"/>
  <polygon class="st3" points="246.9 144.4 247 144.4 246.6 143.8 246.9 144.4"/>
  <path class="st3" d="M250.6,144.4h0"/>
</svg>
