<?xml version="1.0" encoding="UTF-8"?>
<svg id="Layer_1" xmlns="http://www.w3.org/2000/svg" version="1.1" viewBox="0 0 232 48">
  <!-- Generator: Adobe Illustrator 29.6.0, SVG Export Plug-In . SVG Version: 2.1.1 Build 207)  -->
  <defs>
    <style>
      .st0 {
        fill: #fff;
      }

      .st1 {
        fill: #ee2c38;
      }
    </style>
  </defs>
  <path class="st0" d="M24.5,45.3c11.6,0,21-9.4,21-21S36.1,3.3,24.5,3.3,3.4,12.7,3.4,24.3s9.4,21,21,21Z"/>
  <path class="st1" d="M26.7,11.8c-2,3-4.1,6-6,9,2-.9,4-1.7,6.1-2.2,0-2.3,0-4.6,0-6.8Z"/>
  <path class="st1" d="M8,26.7c.4,0,1-.2,1.4-.3,1.7-.6,3.3-1.4,4.9-2.3-1.9-.5-4.1-.5-5.7.8-.4.3-1.6,1.6-.6,1.8Z"/>
  <path class="st1" d="M27.5,32c-.5-3.8-.6-7.6-.8-11.5-2.8.7-5.5,1.8-8,3.2,3.6,1.9,6.6,4.8,8.8,8.2h0Z"/>
  <path class="st1" d="M24.1.8C11.3.8.8,11.2.8,24s10.5,23.2,23.3,23.2,23.3-10.4,23.3-23.2S37,.8,24.1.8ZM38.9,31.3c0,1-.8,1.7-1.7,1.7-.9,0-1.7-.8-1.7-1.7v-.5c0-1,.8-1.7,1.7-1.7.9,0,1.7.8,1.7,1.7v.5ZM40.2,21c-3.7-1.4-7.6-1.5-11.5-.8v1.6c.2,4.5.5,9,1.1,13.4.2,1.1.4,2.2.6,3.3,0,.2.2.5.2.6,0,.2,0,.5-.2.8-.4.6-1.3.8-1.7,0-.4-.6-.5-1.6-.8-2.3-.3-.8-.6-1.5-1-2.3-.8-1.7-1.8-3.3-3.1-4.7-1.7-2.1-4.1-4-6.5-5.3-2,3-4,6-6,8.9-.5.5-1.4.8-1.7-.2-.2-.6.4-1.2.7-1.7.6-.9,1.2-1.8,1.8-2.7.9-1.4,1.8-2.7,2.7-4-1.1.7-2.4,1.4-3.6,2-1.2.6-3,1.4-4.5,1-1.2-.3-1.6-1.5-1.3-2.7.3-1.2,1.1-2.3,2.2-3,2.6-1.8,6-1.4,8.8-.4.2,0,.4-.2.5-.3,2.1-3.2,4.3-6.4,6.4-9.6l1.9-2.9c.4-.6.8-1.4,1.4-2,.8-.7,1.6-.2,1.7.8.2,3.1,0,6.3,0,9.4,3.6-.6,7.3-.5,10.9.5.8.2,2.1.5,2.7,1,.3.2.4.6.2,1-.5,1.3-1.5.8-2.4.5h0Z"/>
  <path class="st0" d="M68,13.6h2.6l9,21h-3.3l-2.1-5.2h-10l-2.1,5.2h-3.3c0,0,9.2-21,9.2-21h0ZM73.1,26.8l-3.9-9.6h0l-4,9.6h7.9Z"/>
  <path class="st0" d="M85.3,13.6v12.8c0,.6,0,1.3.2,2,.2.7.5,1.4.9,1.9.4.6.9,1.1,1.6,1.4.7.3,1.5.5,2.5.5s1.8-.2,2.5-.5c.7-.3,1.2-.8,1.6-1.4.4-.6.7-1.2.9-1.9.2-.7.2-1.4.2-2v-12.8h2.8v13.3c0,1.2-.2,2.4-.6,3.4-.4,1-1,1.8-1.7,2.6-.8.8-1.6,1.3-2.6,1.7-1,.4-2.1.6-3.2.6s-2.2-.2-3.2-.6c-1-.4-1.8-.9-2.5-1.7-.7-.8-1.3-1.6-1.7-2.6-.4-1-.6-2.1-.6-3.4v-13.3h2.8Z"/>
  <path class="st0" d="M108.7,16.2h-6.8v-2.7h16.4v2.7h-6.6v18.3h-2.8v-18.3Z"/>
  <path class="st0" d="M121.9,13.6h2.8v8.7h10.9v-8.7h2.8v21h-2.8v-9.6h-10.9v9.6h-2.8V13.6Z"/>
  <path class="st0" d="M144.6,13.6h13.5v2.7h-10.7v6.3h10v2.7h-10v6.7h11.2v2.7h-14.1V13.5h0Z"/>
  <path class="st0" d="M163.3,13.6h3.8l11.5,17.2h0V13.6h2.8v21h-3.6l-11.7-17.2h0v17.2h-2.8V13.6Z"/>
  <path class="st0" d="M191.9,16.2h-6.8v-2.7h16.4v2.7h-6.8v18.3h-2.7v-18.3Z"/>
  <path class="st0" d="M205.1,13.6h2.8v21h-2.8V13.6Z"/>
  <path class="st0" d="M228.6,18c-.6-.8-1.4-1.4-2.3-1.7-.9-.3-1.8-.6-2.8-.6s-2.3.2-3.2.7c-.9.5-1.7,1.1-2.4,1.8-.7.7-1.2,1.7-1.6,2.7-.4,1.1-.5,2.1-.5,3.4s.2,2.1.5,3.1c.3,1,.8,1.8,1.5,2.6.7.8,1.5,1.4,2.4,1.7.9.3,2.1.6,3.3.6s2.3-.2,3.1-.8c.8-.6,1.7-1.1,2.3-2l2.4,1.8c-.2.2-.5.5-.8.9-.3.4-.9.8-1.6,1.2-.7.4-1.4.8-2.4,1.1-.9.3-2,.5-3.2.5s-3.1-.3-4.5-.9c-1.4-.6-2.4-1.4-3.4-2.5-.9-1-1.7-2.2-2.1-3.5-.5-1.3-.8-2.6-.8-3.9s.3-3.1.8-4.5c.5-1.4,1.3-2.6,2.2-3.6.9-1,2.1-1.7,3.4-2.3,1.4-.5,2.8-.8,4.5-.8s2.8.3,4.1.8c1.4.5,2.4,1.4,3.3,2.4l-2,1.9h0Z"/>
</svg>