<?xml version="1.0" encoding="UTF-8"?>
<svg id="Layer_1" xmlns="http://www.w3.org/2000/svg" version="1.1" viewBox="0 0 496 496">
  <!-- Generator: Adobe Illustrator 29.6.0, SVG Export Plug-In . SVG Version: 2.1.1 Build 207)  -->
  <defs>
    <style>
      .st0 {
        fill: none;
      }

      .st1 {
        fill: #faa400;
      }

      .st2 {
        fill: #007481;
      }
    </style>
  </defs>
  <path class="st0" d="M193.5,73.8c-9.5,14.3-28.8,18.2-43.1,8.6-5.7-3.8-9.7-9.1-11.9-15-26.6,16.9-49.6,39.2-67.6,66.2-33.8,50.7-45.8,111.5-33.8,171.3,12,59.7,46.5,111.2,97.2,145,50.7,33.8,111.5,45.8,171.3,33.8,59.7-12,111.2-46.5,145-97.2,33.8-50.7,45.8-111.5,33.8-171.3-12-59.7-46.5-111.2-97.2-145-50.7-33.8-111.5-45.8-171.3-33.8-7.1,1.4-14.1,3.2-21,5.2,5.3,9.8,5.1,22.1-1.5,32Z"/>
  <path class="st1" d="M214.9,30.9c-7.9,1.6-15.6,3.5-23.2,5.9,1.3,1.5,2.4,3.2,3.3,4.9,6.9-2.1,13.9-3.8,21-5.2,59.7-12,120.6,0,171.3,33.8,50.7,33.8,85.2,85.3,97.2,145,12,59.7,0,120.6-33.8,171.3-33.8,50.7-85.3,85.2-145,97.2-59.7,12-120.6,0-171.3-33.8-50.7-33.8-85.2-85.3-97.2-145-12-59.7,0-120.6,33.8-171.3,18-27,41-49.4,67.6-66.2-.7-1.9-1.2-3.8-1.5-5.7-27.9,17.4-52,40.6-70.7,68.8-34.6,52-46.9,114.3-34.7,175.5,12.3,61.2,47.6,114,99.6,148.6,52,34.6,114.3,46.9,175.5,34.7,61.2-12.3,114-47.6,148.6-99.6,34.6-52,46.9-114.3,34.7-175.5-12.3-61.2-47.6-114-99.6-148.6s-114.3-46.9-175.5-34.7Z"/>
  <path class="st2" d="M141.8,39.3c-4.6,6.9-6.1,14.9-4.8,22.4.3,1.9.8,3.9,1.5,5.7,2.2,5.9,6.2,11.2,11.9,15,14.3,9.5,33.6,5.7,43.1-8.6s6.8-22.2,1.5-32c-.9-1.7-2-3.4-3.3-4.9-1.9-2.3-4.2-4.4-6.8-6.2-14.3-9.5-33.6-5.7-43.1,8.6Z"/>
</svg>