<svg width="1440" height="1052" viewBox="0 0 1440 1052" fill="none" xmlns="http://www.w3.org/2000/svg">
<path d="M23.0161 8.74219L23.2026 9.2959L23.2231 9.31641C36.5293 48.2322 65.1771 80.0313 102.519 97.3252L102.521 97.3262L106.877 99.3389C67.3031 116.119 36.7791 149.005 22.9907 189.682L22.3413 191.643L19.9214 199.104L15.8999 187.718V187.717L15.231 185.865C0.949187 147.091 -28.6425 115.835 -66.6685 99.4795H-66.6675L-67.02 99.3271L-61.0688 96.4609C-25.791 79.5007 1.48677 49.4786 15.0249 12.7686L15.0259 12.7676L19.9038 -0.484375L23.0161 8.74219Z" stroke="#00366A" stroke-width="5"/>
<path d="M209.14 8.74219L209.326 9.29395L209.347 9.31543C222.653 48.2317 251.301 80.0312 288.643 97.3252L288.645 97.3262L293.001 99.3389C253.427 116.119 222.903 149.005 209.115 189.682L208.465 191.643L206.045 199.104L202.024 187.718V187.717L201.355 185.865C187.073 147.091 157.482 115.835 119.456 99.4795H119.457L119.104 99.3271L125.055 96.4609C160.333 79.5007 187.611 49.4786 201.149 12.7686L201.15 12.7676L206.028 -0.484375L209.14 8.74219Z" stroke="#00366A" stroke-width="5"/>
<path d="M395.264 8.74219L395.451 9.29785L395.472 9.31836C408.778 48.2333 437.425 80.0316 474.767 97.3252L474.769 97.3262L479.125 99.3389C438.917 116.388 408.052 150.062 394.589 191.642L392.168 199.104L388.147 187.718V187.717L387.479 185.865C373.197 147.091 343.605 115.835 305.579 99.4795H305.58L305.228 99.3271L311.179 96.4609C346.457 79.5007 373.734 49.4786 387.272 12.7686L387.273 12.7676L392.151 -0.484375L395.264 8.74219Z" stroke="#00366A" stroke-width="5"/>
<path d="M-67.6758 178.415L-67.4883 178.97L-67.4678 178.991C-54.1613 217.906 -25.5142 249.704 11.8271 266.998L11.8291 266.999L16.1855 269.011C-23.3888 285.792 -53.9128 318.677 -67.7012 359.354L-68.3506 361.315L-70.7705 368.776L-74.792 357.39V357.389L-75.4609 355.538C-89.7427 316.763 -119.334 285.507 -157.36 269.152H-157.359L-157.712 269L-151.761 266.133C-116.483 249.173 -89.2051 219.151 -75.667 182.441L-75.666 182.44L-70.7881 169.188L-67.6758 178.415Z" stroke="#00366A" stroke-width="5"/>
<path d="M118.448 178.415L118.635 178.97L118.656 178.991C131.962 217.906 160.609 249.704 197.951 266.998L197.953 266.999L202.309 269.011C162.101 286.06 131.236 319.735 117.773 361.314L115.353 368.776L111.332 357.39V357.389L110.663 355.538C96.3808 316.763 66.7891 285.507 28.7632 269.152H28.7642L28.4116 269L34.3628 266.133C69.6406 249.173 96.9184 219.151 110.457 182.441L110.458 182.44L115.335 169.188L118.448 178.415Z" stroke="#00366A" stroke-width="5"/>
<path d="M304.572 178.415L304.759 178.97L304.78 178.991C318.086 217.906 346.733 249.704 384.075 266.998L384.077 266.999L388.433 269.011C348.859 285.792 318.335 318.677 304.546 359.354L303.897 361.315L301.477 368.777L297.456 357.39V357.389L296.787 355.538C282.732 317.379 253.849 286.501 216.692 269.942L214.888 269.152L214.536 269L220.487 266.133C255.765 249.173 283.042 219.151 296.581 182.441L296.582 182.44L301.459 169.188L304.572 178.415Z" stroke="#00366A" stroke-width="5"/>
<path d="M490.71 178.415L490.897 178.97L490.918 178.991C504.224 217.906 532.872 249.704 570.213 266.998L570.215 266.999L574.571 269.011C534.363 286.06 503.498 319.735 490.035 361.314L487.614 368.777L483.594 357.39V357.389L482.925 355.538C468.643 316.763 439.051 285.507 401.025 269.152H401.026L400.674 269L406.625 266.133C441.903 249.173 469.181 219.151 482.719 182.441L482.72 182.44L487.598 169.188L490.71 178.415Z" stroke="#00366A" stroke-width="5"/>
<path d="M23.0161 355.457L23.2026 356.01L23.2231 356.03C36.5292 394.946 65.1768 426.746 102.519 444.04L102.521 444.041L106.877 446.054C67.3031 462.834 36.7791 495.72 22.9907 536.396L22.3413 538.357L19.9214 545.818L15.8999 534.433V534.432L15.231 532.58C0.949187 493.806 -28.6425 462.549 -66.6685 446.194H-66.6675L-67.02 446.042L-61.0688 443.176C-25.7912 426.216 1.48671 396.194 15.0249 359.484L15.0259 359.482L19.9038 346.23L23.0161 355.457Z" stroke="#00366A" stroke-width="5"/>
<path d="M209.14 355.457L209.326 356.008L209.346 356.028C222.652 394.945 251.3 426.746 288.643 444.04L288.645 444.041L293.001 446.054C253.427 462.834 222.903 495.72 209.115 536.396L208.465 538.357L206.045 545.818L202.024 534.433V534.432L201.355 532.58C187.073 493.806 157.482 462.549 119.456 446.194H119.457L119.104 446.042L125.055 443.176C160.333 426.216 187.611 396.194 201.149 359.484L201.15 359.482L206.028 346.23L209.14 355.457Z" stroke="#00366A" stroke-width="5"/>
<path d="M395.264 355.457L395.45 356.012L395.472 356.033C408.778 394.948 437.425 426.746 474.767 444.04L474.769 444.041L479.125 446.054C438.917 463.103 408.052 496.777 394.589 538.356L392.168 545.819L388.147 534.433V534.432L387.479 532.58C373.197 493.806 343.605 462.549 305.579 446.194H305.58L305.228 446.042L311.179 443.176C346.456 426.216 373.734 396.194 387.272 359.484L387.273 359.482L392.151 346.23L395.264 355.457Z" stroke="#00366A" stroke-width="5"/>
<path d="M-67.6758 525.144L-67.4893 525.698L-67.4678 525.72C-54.1613 564.635 -25.5142 596.433 11.8271 613.727L11.8291 613.728L16.1855 615.74C-23.3888 632.521 -53.9128 665.406 -67.7012 706.083L-68.3506 708.044L-70.7705 715.505L-74.792 704.119V704.118L-75.4609 702.267C-89.7427 663.492 -119.334 632.236 -157.36 615.881H-157.359L-157.712 615.729L-151.761 612.862C-116.483 595.902 -89.2051 565.88 -75.667 529.17L-75.666 529.169L-70.7881 515.917L-67.6758 525.144Z" stroke="#00366A" stroke-width="5"/>
<path d="M118.448 525.144L118.635 525.698L118.655 525.718C131.961 564.634 160.609 596.433 197.951 613.727L197.953 613.728L202.309 615.74C162.101 632.789 131.236 666.464 117.773 708.043L115.353 715.505L111.332 704.119V704.118L110.663 702.267C96.3808 663.492 66.7891 632.236 28.7632 615.881H28.7642L28.4116 615.729L34.3628 612.862C69.6406 595.902 96.9184 565.88 110.457 529.17L110.458 529.169L115.335 515.917L118.448 525.144Z" stroke="#00366A" stroke-width="5"/>
<path d="M304.572 525.144L304.758 525.698L304.78 525.72C318.086 564.635 346.733 596.433 384.075 613.727L384.077 613.728L388.433 615.74C348.859 632.521 318.335 665.406 304.546 706.083L303.897 708.044L301.477 715.506L297.456 704.119V704.118L296.787 702.267C282.732 664.108 253.849 633.23 216.692 616.671L214.888 615.881L214.536 615.729L220.487 612.862C255.765 595.902 283.042 565.88 296.581 529.17L296.582 529.169L301.459 515.917L304.572 525.144Z" stroke="#00366A" stroke-width="5"/>
<path d="M490.71 525.144L490.896 525.698L490.918 525.72C504.224 564.635 532.872 596.433 570.213 613.727L570.215 613.728L574.571 615.74C534.363 632.789 503.498 666.464 490.035 708.043L487.614 715.506L483.594 704.119V704.118L482.925 702.267C468.643 663.492 439.051 632.236 401.025 615.881H401.026L400.674 615.729L406.625 612.862C441.903 595.902 469.181 565.88 482.719 529.17L482.72 529.169L487.598 515.917L490.71 525.144Z" stroke="#00366A" stroke-width="5"/>
<path d="M23.0161 702.172L23.2036 702.727L23.2231 702.746C36.5293 741.662 65.1771 773.461 102.519 790.755L102.521 790.756L106.877 792.769C67.303 809.549 36.7791 842.435 22.9907 883.111L22.3413 885.072L19.9214 892.533L15.8999 881.147V881.146L15.231 879.295C0.949188 840.52 -28.6425 809.264 -66.6685 792.909H-66.6694L-67.021 792.758L-61.0688 789.891C-25.7912 772.93 1.48671 742.909 15.0249 706.199L15.0259 706.197L19.9038 692.945L23.0161 702.172Z" stroke="#00366A" stroke-width="5"/>
<path d="M209.14 702.172L209.327 702.725L209.347 702.745C222.653 741.661 251.301 773.461 288.643 790.755L288.645 790.756L293.001 792.769C253.427 809.549 222.903 842.435 209.115 883.111L208.465 885.072L206.045 892.533L202.024 881.147V881.146L201.355 879.295C187.073 840.52 157.482 809.264 119.456 792.909H119.455L119.103 792.758L125.055 789.891C160.333 772.93 187.611 742.909 201.149 706.199L201.15 706.197L206.028 692.945L209.14 702.172Z" stroke="#00366A" stroke-width="5"/>
<path d="M395.264 702.172L395.451 702.729L395.472 702.749C408.778 741.664 437.426 773.461 474.767 790.755L474.769 790.756L479.125 792.769C438.917 809.818 408.052 843.492 394.589 885.071L392.168 892.534L388.147 881.147V881.146L387.479 879.295C373.197 840.52 343.605 809.264 305.579 792.909H305.578L305.227 792.758L311.179 789.891C346.456 772.93 373.734 742.909 387.272 706.199L387.273 706.197L392.151 692.945L395.264 702.172Z" stroke="#00366A" stroke-width="5"/>
<path d="M-67.6758 871.858L-67.4873 872.417L-67.4668 872.437C-54.16 911.35 -25.5135 943.148 11.8271 960.441L11.8291 960.442L16.1855 962.455C-23.3888 979.235 -53.9128 1012.12 -67.7012 1052.8L-68.3506 1054.76L-70.7705 1062.22L-74.792 1050.83V1050.83L-75.4609 1048.98C-89.7427 1010.21 -119.334 978.951 -157.36 962.596H-157.359L-157.712 962.443L-151.761 959.577C-116.483 942.617 -89.2052 912.596 -75.667 875.886L-75.666 875.884L-70.7881 862.632L-67.6758 871.858Z" stroke="#00366A" stroke-width="5"/>
<path d="M118.448 871.858L118.636 872.417L118.657 872.438C131.964 911.351 160.61 943.148 197.951 960.441L197.953 960.442L202.309 962.455C162.101 979.504 131.236 1013.18 117.773 1054.76L115.353 1062.22L111.332 1050.83V1050.83L110.663 1048.98C96.3808 1010.21 66.7891 978.951 28.7632 962.596H28.7642L28.4116 962.443L34.3628 959.577C69.6405 942.617 96.9184 912.596 110.457 875.886L110.458 875.884L115.335 862.632L118.448 871.858Z" stroke="#00366A" stroke-width="5"/>
<path d="M304.572 871.858L304.76 872.417L304.781 872.437C318.088 911.35 346.734 943.148 384.075 960.441L384.077 960.442L388.433 962.455C348.859 979.235 318.335 1012.12 304.546 1052.8L303.897 1054.76L301.477 1062.22L297.456 1050.83V1050.83L296.787 1048.98C282.732 1010.82 253.849 979.945 216.692 963.386L214.888 962.596L214.536 962.443L220.487 959.577C255.764 942.617 283.042 912.596 296.581 875.886L296.582 875.884L301.46 862.633L304.572 871.858Z" stroke="#00366A" stroke-width="5"/>
<path d="M1328.29 8.74219L1328.48 9.29785L1328.5 9.31738C1341.8 48.2328 1370.45 80.0315 1407.79 97.3252L1407.79 97.3262L1412.15 99.3389C1371.94 116.388 1341.08 150.062 1327.61 191.642L1325.19 199.104L1321.17 187.718V187.717L1320.5 185.865C1306.22 147.091 1276.63 115.835 1238.6 99.4795H1238.6L1238.25 99.3271L1244.2 96.4609C1279.48 79.5007 1306.76 49.4786 1320.3 12.7686L1320.3 12.7676L1325.18 -0.484375L1328.29 8.74219Z" stroke="#00366A" stroke-width="5"/>
<path d="M1514.41 8.74219L1514.6 9.29785L1514.62 9.31836C1527.93 48.2332 1556.57 80.0316 1593.92 97.3252L1593.92 97.3262L1598.27 99.3389C1558.7 116.119 1528.18 149.005 1514.39 189.682L1513.74 191.643L1511.32 199.104L1507.3 187.718V187.717L1506.63 185.865C1492.57 147.706 1463.69 116.829 1426.53 100.27L1424.73 99.4795L1424.38 99.3271L1430.33 96.4609C1465.6 79.5007 1492.88 49.4787 1506.42 12.7686L1506.42 12.7676L1511.3 -0.483398L1514.41 8.74219Z" stroke="#00366A" stroke-width="5"/>
<path d="M1423.72 178.415L1423.91 178.97L1423.93 178.991C1437.23 217.906 1465.88 249.704 1503.22 266.998L1503.22 266.999L1507.58 269.011C1467.37 286.06 1436.51 319.735 1423.04 361.314L1420.62 368.777L1416.6 357.39V357.389L1415.93 355.538C1401.88 317.379 1373 286.501 1335.84 269.942L1334.04 269.152L1333.68 269L1339.63 266.133C1374.91 249.173 1402.19 219.151 1415.73 182.441L1415.73 182.44L1420.61 169.189L1423.72 178.415Z" stroke="#00366A" stroke-width="5"/>
<path d="M1328.29 355.457L1328.47 356.012L1328.5 356.032C1341.8 394.948 1370.45 426.746 1407.79 444.04L1407.79 444.041L1412.15 446.054C1371.94 463.103 1341.08 496.777 1327.61 538.356L1325.19 545.818L1321.17 534.433V534.432L1320.5 532.58C1306.22 493.806 1276.63 462.549 1238.6 446.194H1238.6L1238.25 446.042L1244.2 443.176C1279.48 426.216 1306.76 396.194 1320.3 359.484L1320.3 359.482L1325.18 346.23L1328.29 355.457Z" stroke="#00366A" stroke-width="5"/>
<path d="M1514.41 355.457L1514.6 356.012L1514.62 356.031C1527.93 394.947 1556.57 426.746 1593.92 444.04L1593.92 444.041L1598.27 446.054C1558.7 462.834 1528.18 495.72 1514.39 536.396L1513.74 538.357L1511.32 545.819L1507.3 534.433V534.432L1506.63 532.58C1492.57 494.421 1463.69 463.544 1426.53 446.984L1424.73 446.194L1424.38 446.042L1430.33 443.176C1465.6 426.216 1492.88 396.194 1506.42 359.484L1506.42 359.482L1511.3 346.231L1514.41 355.457Z" stroke="#00366A" stroke-width="5"/>
<path d="M1423.72 525.144L1423.91 525.698L1423.93 525.718C1437.23 564.634 1465.88 596.433 1503.22 613.727L1503.22 613.728L1507.58 615.74C1467.37 632.789 1436.51 666.464 1423.04 708.043L1420.62 715.506L1416.6 704.119V704.118L1415.93 702.267C1401.88 664.108 1373 633.23 1335.84 616.671L1334.04 615.881L1333.68 615.729L1339.63 612.862C1374.91 595.902 1402.19 565.88 1415.73 529.17L1415.73 529.169L1420.61 515.918L1423.72 525.144Z" stroke="#00366A" stroke-width="5"/>
<path d="M1328.29 702.172L1328.48 702.729L1328.5 702.748C1341.8 741.663 1370.45 773.461 1407.79 790.755L1407.79 790.756L1412.15 792.769C1371.94 809.818 1341.08 843.492 1327.61 885.071L1325.19 892.533L1321.17 881.147V881.146L1320.5 879.295C1306.22 840.52 1276.63 809.264 1238.6 792.909H1238.6L1238.25 792.758L1244.2 789.891C1279.48 772.93 1306.76 742.909 1320.3 706.199L1320.3 706.197L1325.18 692.945L1328.29 702.172Z" stroke="#00366A" stroke-width="5"/>
<path d="M1514.41 702.172L1514.6 702.729L1514.62 702.749C1527.93 741.663 1556.57 773.461 1593.92 790.755L1593.92 790.756L1598.27 792.769C1558.7 809.549 1528.18 842.435 1514.39 883.111L1513.74 885.072L1511.32 892.534L1507.3 881.147V881.146L1506.63 879.295C1492.35 840.52 1462.75 809.264 1424.73 792.909L1424.38 792.758L1430.33 789.891C1465.6 772.93 1492.88 742.909 1506.42 706.199L1506.42 706.197L1511.3 692.946L1514.41 702.172Z" stroke="#00366A" stroke-width="5"/>
<path d="M1423.72 871.858L1423.91 872.417L1423.93 872.437C1437.24 911.35 1465.88 943.148 1503.22 960.441L1503.22 960.442L1507.58 962.455C1467.37 979.504 1436.51 1013.18 1423.04 1054.76L1420.62 1062.22L1416.6 1050.83V1050.83L1415.93 1048.98C1401.88 1010.82 1373 979.945 1335.84 963.386L1334.04 962.596L1333.68 962.443L1339.63 959.577C1374.91 942.617 1402.19 912.596 1415.73 875.886L1415.73 875.884L1420.61 862.633L1423.72 871.858Z" stroke="#00366A" stroke-width="5"/>
<path d="M490.71 871.858L490.898 872.417L490.919 872.437C504.226 911.35 532.872 943.148 570.213 960.441L570.215 960.442L574.571 962.455C534.363 979.504 503.498 1013.18 490.035 1054.76L487.614 1062.22L483.594 1050.83V1050.83L482.925 1048.98C468.643 1010.21 439.051 978.951 401.025 962.596H401.026L400.674 962.443L406.625 959.577C441.903 942.617 469.181 912.596 482.719 875.886L482.72 875.884L487.598 862.632L490.71 871.858Z" stroke="#00366A" stroke-width="5"/>
<path d="M581.401 8.74219L581.589 9.29785L581.609 9.31836C594.916 48.2333 623.563 80.0316 660.904 97.3252L660.906 97.3262L665.263 99.3389C625.055 116.388 594.189 150.062 580.727 191.642L578.306 199.104L574.285 187.718V187.717L573.616 185.865C559.334 147.091 529.743 115.835 491.717 99.4795H491.718L491.365 99.3271L497.316 96.4609C532.594 79.5007 559.872 49.4786 573.41 12.7686L573.411 12.7676L578.289 -0.484375L581.401 8.74219Z" stroke="#00366A" stroke-width="5"/>
<path d="M767.525 8.74219L767.713 9.29785L767.733 9.31836C781.04 48.2333 809.687 80.0316 847.028 97.3252L847.03 97.3262L851.387 99.3389C811.812 116.119 781.288 149.005 767.5 189.682L766.851 191.643L764.431 199.104L760.409 187.718V187.717L759.74 185.865C745.458 147.091 715.867 115.835 677.841 99.4795H677.842L677.489 99.3271L683.44 96.4609C718.718 79.5007 745.996 49.4786 759.534 12.7686L759.535 12.7676L764.413 -0.484375L767.525 8.74219Z" stroke="#00366A" stroke-width="5"/>
<path d="M953.649 8.74219L953.836 9.29785L953.857 9.31836C967.163 48.2332 995.811 80.0316 1033.15 97.3252L1033.15 97.3262L1037.51 99.3389C997.302 116.388 966.437 150.062 952.974 191.642L950.554 199.104L946.533 187.718V187.717L945.864 185.865C931.582 147.091 901.99 115.835 863.964 99.4795H863.965L863.613 99.3271L869.564 96.4609C904.842 79.5007 932.12 49.4786 945.658 12.7686L945.659 12.7676L950.537 -0.484375L953.649 8.74219Z" stroke="#00366A" stroke-width="5"/>
<path d="M1139.79 8.74219L1139.97 9.29785L1139.99 9.31738C1153.3 48.2328 1181.95 80.0315 1219.29 97.3252L1219.29 97.3262L1223.65 99.3389C1183.44 116.388 1152.57 150.062 1139.11 191.642L1136.69 199.104L1132.67 187.718V187.717L1132 185.865C1117.72 147.091 1088.13 115.835 1050.1 99.4795H1050.1L1049.75 99.3271L1055.7 96.4609C1090.98 79.5007 1118.26 49.4786 1131.8 12.7686L1131.8 12.7676L1136.67 -0.484375L1139.79 8.74219Z" stroke="#00366A" stroke-width="5"/>
<path d="M676.833 178.415L677.02 178.966L677.04 178.986C690.345 217.903 718.994 249.703 756.336 266.998L756.338 266.999L760.695 269.011C720.487 286.06 689.621 319.735 676.159 361.314L673.738 368.777L669.717 357.39V357.389L669.048 355.538C654.767 316.763 625.175 285.507 587.149 269.152H587.15L586.797 269L592.749 266.133C628.026 249.173 655.304 219.151 668.842 182.441L668.843 182.44L673.721 169.188L676.833 178.415Z" stroke="#00366A" stroke-width="5"/>
<path d="M862.957 178.415L863.145 178.97L863.165 178.991C876.472 217.906 905.119 249.704 942.46 266.998L942.462 266.999L946.818 269.011C906.61 286.06 875.745 319.735 862.282 361.314L859.861 368.777L855.841 357.39V357.389L855.172 355.538C840.89 316.763 811.298 285.507 773.272 269.152H773.273L772.921 269L778.872 266.133C814.15 249.173 841.428 219.151 854.966 182.441L854.967 182.44L859.845 169.188L862.957 178.415Z" stroke="#00366A" stroke-width="5"/>
<path d="M1049.1 178.415L1049.28 178.97L1049.3 178.991C1062.61 217.906 1091.26 249.704 1128.6 266.998L1128.6 266.999L1132.96 269.011C1093.38 285.792 1062.86 318.677 1049.07 359.354L1048.42 361.315L1046 368.777L1041.98 357.39V357.389L1041.31 355.538C1027.25 317.379 998.373 286.501 961.215 269.942L959.412 269.152L959.059 269L965.01 266.133C1000.29 249.173 1027.57 219.151 1041.1 182.441L1041.1 182.44L1045.98 169.189L1049.1 178.415Z" stroke="#00366A" stroke-width="5"/>
<path d="M1235.22 178.415L1235.4 178.962L1235.42 178.983C1248.73 217.901 1277.38 249.703 1314.72 266.998L1314.72 266.999L1319.08 269.011C1278.87 286.06 1248.01 319.735 1234.54 361.314L1232.12 368.777L1228.1 357.39V357.389L1227.43 355.538C1213.38 317.379 1184.5 286.501 1147.34 269.942L1145.54 269.152L1145.18 269L1151.13 266.133C1186.41 249.173 1213.69 219.151 1227.23 182.441L1227.23 182.44L1232.11 169.188L1235.22 178.415Z" stroke="#00366A" stroke-width="5"/>
<path d="M581.401 355.457L581.588 356.012L581.609 356.033C594.916 394.948 623.563 426.746 660.904 444.04L660.906 444.041L665.263 446.054C625.055 463.103 594.189 496.777 580.727 538.356L578.306 545.819L574.285 534.433V534.432L573.616 532.58C559.334 493.806 529.743 462.549 491.717 446.194H491.718L491.365 446.042L497.316 443.176C532.594 426.216 559.872 396.194 573.41 359.484L573.411 359.482L578.289 346.23L581.401 355.457Z" stroke="#00366A" stroke-width="5"/>
<path d="M767.525 355.457L767.712 356.012L767.733 356.033C781.04 394.948 809.687 426.746 847.028 444.04L847.03 444.041L851.387 446.054C811.812 462.834 781.288 495.72 767.5 536.396L766.851 538.357L764.431 545.819L760.409 534.433V534.432L759.74 532.58C745.458 493.806 715.867 462.549 677.841 446.194H677.842L677.489 446.042L683.44 443.176C718.718 426.216 745.996 396.194 759.534 359.484L759.535 359.482L764.414 346.231L767.525 355.457Z" stroke="#00366A" stroke-width="5"/>
<path d="M953.649 355.457L953.836 356.012L953.856 356.031C967.162 394.947 995.81 426.746 1033.15 444.04L1033.15 444.041L1037.51 446.054C997.302 463.103 966.437 496.777 952.974 538.356L950.554 545.819L946.533 534.433V534.432L945.864 532.58C931.582 493.806 901.99 462.549 863.964 446.194H863.965L863.613 446.042L869.564 443.176C904.842 426.216 932.12 396.194 945.658 359.484L945.659 359.482L950.537 346.23L953.649 355.457Z" stroke="#00366A" stroke-width="5"/>
<path d="M1139.79 355.457L1139.97 356.012L1139.99 356.032C1153.3 394.948 1181.95 426.746 1219.29 444.04L1219.29 444.041L1223.65 446.054C1183.44 463.103 1152.57 496.777 1139.11 538.356L1136.69 545.819L1132.67 534.433V534.432L1132 532.58C1117.72 493.806 1088.13 462.549 1050.1 446.194H1050.1L1049.75 446.042L1055.7 443.176C1090.98 426.216 1118.26 396.194 1131.8 359.484L1131.8 359.482L1136.67 346.23L1139.79 355.457Z" stroke="#00366A" stroke-width="5"/>
<path d="M676.833 525.144L677.019 525.694L677.04 525.715C690.345 564.632 718.994 596.432 756.336 613.727L756.338 613.728L760.695 615.74C720.487 632.789 689.621 666.464 676.159 708.043L673.738 715.506L669.717 704.119V704.118L669.048 702.267C654.767 663.492 625.175 632.236 587.149 615.881H587.15L586.797 615.729L592.749 612.862C628.026 595.902 655.304 565.88 668.842 529.17L668.843 529.169L673.721 515.917L676.833 525.144Z" stroke="#00366A" stroke-width="5"/>
<path d="M862.957 525.144L863.144 525.698L863.165 525.72C876.472 564.635 905.119 596.433 942.46 613.727L942.462 613.728L946.818 615.74C906.61 632.789 875.745 666.464 862.282 708.043L859.861 715.506L855.841 704.119V704.118L855.172 702.267C840.89 663.492 811.298 632.236 773.272 615.881H773.273L772.921 615.729L778.872 612.862C814.15 595.902 841.428 565.88 854.966 529.17L854.967 529.169L859.845 515.917L862.957 525.144Z" stroke="#00366A" stroke-width="5"/>
<path d="M1049.1 525.144L1049.28 525.698L1049.3 525.718C1062.61 564.634 1091.26 596.433 1128.6 613.727L1128.6 613.728L1132.96 615.74C1093.38 632.521 1062.86 665.406 1049.07 706.083L1048.42 708.044L1046 715.506L1041.98 704.119V704.118L1041.31 702.267C1027.25 664.108 998.373 633.23 961.215 616.671L959.412 615.881L959.059 615.729L965.01 612.862C1000.29 595.902 1027.57 565.88 1041.1 529.17L1041.1 529.169L1045.98 515.918L1049.1 525.144Z" stroke="#00366A" stroke-width="5"/>
<path d="M1235.22 525.144L1235.4 525.69L1235.42 525.711C1248.73 564.63 1277.38 596.432 1314.72 613.727L1314.72 613.728L1319.08 615.74C1278.87 632.789 1248.01 666.464 1234.54 708.043L1232.12 715.506L1228.1 704.119V704.118L1227.43 702.267C1213.38 664.108 1184.5 633.23 1147.34 616.671L1145.54 615.881L1145.18 615.729L1151.13 612.862C1186.41 595.902 1213.69 565.88 1227.23 529.17L1227.23 529.169L1232.11 515.917L1235.22 525.144Z" stroke="#00366A" stroke-width="5"/>
<path d="M581.401 702.172L581.589 702.729L581.609 702.749C594.916 741.664 623.563 773.461 660.904 790.755L660.906 790.756L665.263 792.769C625.055 809.818 594.189 843.492 580.727 885.071L578.306 892.534L574.285 881.147V881.146L573.616 879.295C559.334 840.52 529.743 809.264 491.717 792.909H491.716L491.364 792.758L497.316 789.891C532.594 772.93 559.872 742.909 573.41 706.199L573.411 706.197L578.289 692.945L581.401 702.172Z" stroke="#00366A" stroke-width="5"/>
<path d="M767.525 702.172L767.713 702.729L767.733 702.749C781.04 741.664 809.687 773.461 847.028 790.755L847.03 790.756L851.387 792.769C811.812 809.549 781.288 842.435 767.5 883.111L766.851 885.072L764.431 892.534L760.409 881.147V881.146L759.74 879.295C745.458 840.52 715.867 809.264 677.841 792.909H677.84L677.488 792.758L683.44 789.891C718.718 772.93 745.996 742.909 759.534 706.199L759.535 706.197L764.414 692.946L767.525 702.172Z" stroke="#00366A" stroke-width="5"/>
<path d="M953.649 702.172L953.836 702.729L953.857 702.749C967.164 741.663 995.811 773.461 1033.15 790.755L1033.15 790.756L1037.51 792.769C997.302 809.818 966.437 843.492 952.974 885.071L950.554 892.534L946.533 881.147V881.146L945.864 879.295C931.582 840.52 901.99 809.264 863.964 792.909H863.963L863.612 792.758L869.564 789.891C904.842 772.93 932.12 742.909 945.658 706.199L945.659 706.197L950.537 692.945L953.649 702.172Z" stroke="#00366A" stroke-width="5"/>
<path d="M1139.79 702.172L1139.97 702.729L1139.99 702.748C1153.3 741.663 1181.95 773.461 1219.29 790.755L1219.29 790.756L1223.65 792.769C1183.44 809.818 1152.57 843.492 1139.11 885.071L1136.69 892.534L1132.67 881.147V881.146L1132 879.295C1117.72 840.52 1088.13 809.264 1050.1 792.909H1050.1L1049.75 792.758L1055.7 789.891C1090.98 772.93 1118.26 742.909 1131.8 706.199L1131.8 706.197L1136.67 692.945L1139.79 702.172Z" stroke="#00366A" stroke-width="5"/>
<path d="M676.833 871.858L677.02 872.413L677.042 872.435C690.348 911.349 718.995 943.148 756.336 960.441L756.338 960.442L760.695 962.455C720.487 979.504 689.621 1013.18 676.159 1054.76L673.738 1062.22L669.717 1050.83V1050.83L669.048 1048.98C654.767 1010.21 625.175 978.951 587.149 962.596H587.15L586.797 962.443L592.749 959.577C628.026 942.617 655.304 912.596 668.842 875.886L668.843 875.884L673.721 862.632L676.833 871.858Z" stroke="#00366A" stroke-width="5"/>
<path d="M862.957 871.858L863.146 872.417L863.166 872.437C876.473 911.35 905.119 943.148 942.46 960.441L942.462 960.442L946.818 962.455C906.61 979.504 875.745 1013.18 862.282 1054.76L859.861 1062.22L855.841 1050.83V1050.83L855.172 1048.98C840.89 1010.21 811.298 978.951 773.272 962.596H773.273L772.921 962.443L778.872 959.577C814.15 942.617 841.428 912.596 854.966 875.886L854.967 875.884L859.845 862.632L862.957 871.858Z" stroke="#00366A" stroke-width="5"/>
<path d="M1049.1 871.858L1049.28 872.417L1049.3 872.437C1062.61 911.35 1091.26 943.148 1128.6 960.441L1128.6 960.442L1132.96 962.455C1093.38 979.235 1062.86 1012.12 1049.07 1052.8L1048.42 1054.76L1046 1062.22L1041.98 1050.83V1050.83L1041.31 1048.98C1027.25 1010.82 998.373 979.945 961.215 963.386L959.412 962.596L959.059 962.443L965.01 959.577C1000.29 942.617 1027.57 912.596 1041.1 875.886L1041.1 875.884L1045.98 862.633L1049.1 871.858Z" stroke="#00366A" stroke-width="5"/>
<path d="M1235.22 871.858L1235.4 872.409L1235.42 872.43C1248.73 911.347 1277.38 943.147 1314.72 960.441L1314.72 960.442L1319.08 962.455C1278.87 979.504 1248.01 1013.18 1234.54 1054.76L1232.12 1062.22L1228.1 1050.83V1050.83L1227.43 1048.98C1213.38 1010.82 1184.5 979.945 1147.34 963.386L1145.54 962.596L1145.18 962.443L1151.13 959.577C1186.41 942.617 1213.69 912.596 1227.23 875.886L1227.23 875.884L1232.11 862.632L1235.22 871.858Z" stroke="#00366A" stroke-width="5"/>
</svg>
