<svg width="250" height="626" viewBox="0 0 250 626" fill="none" xmlns="http://www.w3.org/2000/svg">
<path d="M124.995 375.598C193.981 375.598 249.989 431.696 249.989 500.794H124.995V375.598Z" fill="#007481"/>
<path d="M124.995 375.598V500.794H0C0 431.707 56.0085 375.598 124.995 375.598Z" fill="#F42534"/>
<path d="M124.995 250.402H249.989C249.989 319.499 193.981 375.598 124.995 375.598V250.402Z" fill="white"/>
<path d="M0 250.402H124.995C124.995 319.499 68.9862 375.598 0 375.598V250.402Z" fill="#F42534"/>
<path d="M124.995 125.196H249.989C249.989 194.293 193.981 250.392 124.995 250.392V125.196Z" fill="#FAA400"/>
<path d="M124.995 0H249.989C249.989 69.0972 193.981 125.196 124.995 125.196V0Z" fill="#007481"/>
<path d="M124.995 0V125.196H0C0 56.0986 56.0085 0 124.995 0Z" fill="#00B4AD"/>
</svg>
