<svg width="262" height="840" viewBox="0 0 262 840" fill="none" xmlns="http://www.w3.org/2000/svg">
<g opacity="0.16" clip-path="url(#clip0_55_877)">
<path d="M160.244 654.053L205.545 574.638" stroke="#D1D3D4" stroke-width="3.14" stroke-miterlimit="10"/>
<path d="M205.299 654.054C209.315 654.339 296.461 654.054 296.461 654.054" stroke="#D1D3D4" stroke-width="3.14" stroke-miterlimit="10"/>
<path d="M182.895 534.92L228.215 614.345C231.798 614.601 304.483 614.405 319.376 614.345" stroke="#D1D3D4" stroke-width="3.14" stroke-miterlimit="10"/>
<path d="M182.895 534.92H273.515L319.376 614.345L273.8 693.771H182.895L138.205 613.479L182.895 534.92Z" stroke="#D1D3D4" stroke-width="3.14" stroke-miterlimit="10"/>
<path d="M228.795 534.92L274.657 614.345" stroke="#D1D3D4" stroke-width="3.14" stroke-miterlimit="10"/>
<path d="M182.895 693.771L228.185 614.346" stroke="#D1D3D4" stroke-width="3.14" stroke-miterlimit="10"/>
<path d="M160.244 812.905L205.545 733.479" stroke="#D1D3D4" stroke-width="3.14" stroke-miterlimit="10"/>
<path d="M205.299 812.905C209.315 813.19 296.461 812.905 296.461 812.905" stroke="#D1D3D4" stroke-width="3.14" stroke-miterlimit="10"/>
<path d="M182.895 693.771L228.215 773.197C231.798 773.453 304.483 773.256 319.376 773.197" stroke="#D1D3D4" stroke-width="3.14" stroke-miterlimit="10"/>
<path d="M182.895 693.771H273.515L319.376 773.187L273.8 852.613H182.895L138.205 772.331L182.895 693.771Z" stroke="#D1D3D4" stroke-width="3.14" stroke-miterlimit="10"/>
<path d="M228.795 693.771L274.657 773.187" stroke="#D1D3D4" stroke-width="3.14" stroke-miterlimit="10"/>
<path d="M182.895 852.613L228.185 773.188" stroke="#D1D3D4" stroke-width="3.14" stroke-miterlimit="10"/>
<path d="M23.8118 733.971L69.1023 654.546" stroke="#D1D3D4" stroke-width="3.14" stroke-miterlimit="10"/>
<path d="M68.8662 733.972C72.8824 734.257 160.028 733.972 160.028 733.972" stroke="#D1D3D4" stroke-width="3.14" stroke-miterlimit="10"/>
<path d="M46.4619 614.838L91.7819 694.263C95.365 694.519 168.05 694.322 182.944 694.263" stroke="#D1D3D4" stroke-width="3.14" stroke-miterlimit="10"/>
<path d="M182.944 694.254L137.368 773.679H46.462L1.77197 693.397L46.462 614.838" stroke="#D1D3D4" stroke-width="3.14" stroke-miterlimit="10"/>
<path d="M92.353 614.838L138.224 694.254" stroke="#D1D3D4" stroke-width="3.14" stroke-miterlimit="10"/>
<path d="M46.4619 773.679L91.7524 694.254" stroke="#D1D3D4" stroke-width="3.14" stroke-miterlimit="10"/>
<path d="M24.304 574.638L69.5945 495.213" stroke="#D1D3D4" stroke-width="3.14" stroke-miterlimit="10"/>
<path d="M69.3584 574.639C73.3746 574.924 160.52 574.639 160.52 574.639" stroke="#D1D3D4" stroke-width="3.14" stroke-miterlimit="10"/>
<path d="M46.9541 455.505L92.2741 534.93C95.8572 535.186 168.543 534.989 183.436 534.93" stroke="#D1D3D4" stroke-width="3.14" stroke-miterlimit="10"/>
<path d="M137.85 614.346H46.9542L2.26416 534.064L46.9542 455.505H137.565" stroke="#D1D3D4" stroke-width="3.14" stroke-miterlimit="10"/>
<path d="M92.8452 455.505L138.716 534.921" stroke="#D1D3D4" stroke-width="3.14" stroke-miterlimit="10"/>
<path d="M46.9541 614.346L92.2446 534.921" stroke="#D1D3D4" stroke-width="3.14" stroke-miterlimit="10"/>
<path d="M160.244 495.213L205.545 415.787" stroke="#D1D3D4" stroke-width="3.14" stroke-miterlimit="10"/>
<path d="M205.299 495.213C209.315 495.498 296.461 495.213 296.461 495.213" stroke="#D1D3D4" stroke-width="3.14" stroke-miterlimit="10"/>
<path d="M182.895 376.079L228.215 455.505C231.798 455.761 304.483 455.564 319.376 455.505" stroke="#D1D3D4" stroke-width="3.14" stroke-miterlimit="10"/>
<path d="M182.895 376.079H273.515L319.376 455.505L273.8 534.92H182.895L138.205 454.638L182.895 376.079Z" stroke="#D1D3D4" stroke-width="3.14" stroke-miterlimit="10"/>
<path d="M228.795 376.079L274.657 455.505" stroke="#D1D3D4" stroke-width="3.14" stroke-miterlimit="10"/>
<path d="M182.895 534.921L228.185 455.505" stroke="#D1D3D4" stroke-width="3.14" stroke-miterlimit="10"/>
<path d="M24.304 892.321L69.5945 812.905" stroke="#D1D3D4" stroke-width="3.14" stroke-miterlimit="10"/>
<path d="M46.9541 773.188L92.2741 852.613C95.8572 852.869 168.543 852.672 183.436 852.613" stroke="#D1D3D4" stroke-width="3.14" stroke-miterlimit="10"/>
<path d="M183.436 852.613L137.85 932.039H46.9542L2.26416 851.747L46.9542 773.188" stroke="#D1D3D4" stroke-width="3.14" stroke-miterlimit="10"/>
<path d="M92.8452 773.188L138.716 852.613" stroke="#D1D3D4" stroke-width="3.14" stroke-miterlimit="10"/>
<path d="M160.244 177.52L205.545 98.1045" stroke="#D1D3D4" stroke-width="3.14" stroke-miterlimit="10"/>
<path d="M205.299 177.521C209.315 177.806 296.461 177.521 296.461 177.521" stroke="#D1D3D4" stroke-width="3.14" stroke-miterlimit="10"/>
<path d="M182.895 58.3867L228.215 137.812C231.798 138.068 304.483 137.871 319.376 137.812" stroke="#D1D3D4" stroke-width="3.14" stroke-miterlimit="10"/>
<path d="M182.895 58.3867H273.515L319.376 137.812L273.8 217.238H182.895L138.205 136.956L182.895 58.3867Z" stroke="#D1D3D4" stroke-width="3.14" stroke-miterlimit="10"/>
<path d="M228.795 58.3867L274.657 137.812" stroke="#D1D3D4" stroke-width="3.14" stroke-miterlimit="10"/>
<path d="M182.895 217.238L228.185 137.812" stroke="#D1D3D4" stroke-width="3.14" stroke-miterlimit="10"/>
<path d="M160.244 336.372L205.545 256.946" stroke="#D1D3D4" stroke-width="3.14" stroke-miterlimit="10"/>
<path d="M205.299 336.372C209.315 336.657 296.461 336.372 296.461 336.372" stroke="#D1D3D4" stroke-width="3.14" stroke-miterlimit="10"/>
<path d="M182.895 217.238L228.215 296.664C231.798 296.92 304.483 296.723 319.376 296.664" stroke="#D1D3D4" stroke-width="3.14" stroke-miterlimit="10"/>
<path d="M182.895 217.238H273.515L319.376 296.654L273.8 376.08H182.895L138.205 295.797L182.895 217.238Z" stroke="#D1D3D4" stroke-width="3.14" stroke-miterlimit="10"/>
<path d="M228.795 217.238L274.657 296.654" stroke="#D1D3D4" stroke-width="3.14" stroke-miterlimit="10"/>
<path d="M182.895 376.08L228.185 296.654" stroke="#D1D3D4" stroke-width="3.14" stroke-miterlimit="10"/>
<path d="M23.8118 257.438L69.1023 178.013" stroke="#D1D3D4" stroke-width="3.14" stroke-miterlimit="10"/>
<path d="M68.8662 257.438C72.8824 257.723 160.028 257.438 160.028 257.438" stroke="#D1D3D4" stroke-width="3.14" stroke-miterlimit="10"/>
<path d="M46.4619 138.305L91.7819 217.73C95.365 217.986 168.05 217.789 182.944 217.73" stroke="#D1D3D4" stroke-width="3.14" stroke-miterlimit="10"/>
<path d="M182.944 217.72L137.368 297.146H46.462L1.77197 216.864L46.462 138.305" stroke="#D1D3D4" stroke-width="3.14" stroke-miterlimit="10"/>
<path d="M92.353 138.305L138.224 217.72" stroke="#D1D3D4" stroke-width="3.14" stroke-miterlimit="10"/>
<path d="M46.4619 297.146L91.7524 217.721" stroke="#D1D3D4" stroke-width="3.14" stroke-miterlimit="10"/>
<path d="M24.304 98.1052L69.5945 18.6797" stroke="#D1D3D4" stroke-width="3.14" stroke-miterlimit="10"/>
<path d="M69.3584 98.1055C73.3746 98.3905 160.52 98.1055 160.52 98.1055" stroke="#D1D3D4" stroke-width="3.14" stroke-miterlimit="10"/>
<path d="M46.9541 -21.0283L92.2741 58.3972C95.8572 58.6532 168.543 58.4563 183.436 58.3972" stroke="#D1D3D4" stroke-width="3.14" stroke-miterlimit="10"/>
<path d="M137.85 137.813H46.9542L2.26416 57.5308L46.9542 -21.0283H137.565" stroke="#D1D3D4" stroke-width="3.14" stroke-miterlimit="10"/>
<path d="M92.8452 -21.0283L138.716 58.3874" stroke="#D1D3D4" stroke-width="3.14" stroke-miterlimit="10"/>
<path d="M46.9541 137.813L92.2446 58.3877" stroke="#D1D3D4" stroke-width="3.14" stroke-miterlimit="10"/>
<path d="M160.244 18.6795L205.545 -60.7461" stroke="#D1D3D4" stroke-width="3.14" stroke-miterlimit="10"/>
<path d="M205.299 18.6797C209.315 18.9647 296.461 18.6797 296.461 18.6797" stroke="#D1D3D4" stroke-width="3.14" stroke-miterlimit="10"/>
<path d="M182.895 -100.454H273.515L319.376 -21.0286L273.8 58.3871H182.895L138.205 -21.895L182.895 -100.454Z" stroke="#D1D3D4" stroke-width="3.14" stroke-miterlimit="10"/>
<path d="M182.895 58.3874L228.185 -21.0283" stroke="#D1D3D4" stroke-width="3.14" stroke-miterlimit="10"/>
<path d="M24.304 415.788L69.5945 336.372" stroke="#D1D3D4" stroke-width="3.14" stroke-miterlimit="10"/>
<path d="M69.3584 415.788C73.3746 416.073 160.52 415.788 160.52 415.788" stroke="#D1D3D4" stroke-width="3.14" stroke-miterlimit="10"/>
<path d="M46.9541 296.654L92.2741 376.08C95.8572 376.336 168.543 376.139 183.436 376.08" stroke="#D1D3D4" stroke-width="3.14" stroke-miterlimit="10"/>
<path d="M183.436 376.08L137.85 455.505H46.9542L2.26416 375.223L46.9542 296.654" stroke="#D1D3D4" stroke-width="3.14" stroke-miterlimit="10"/>
<path d="M92.8452 296.654L138.716 376.08" stroke="#D1D3D4" stroke-width="3.14" stroke-miterlimit="10"/>
<path d="M46.9541 455.506L92.2446 376.08" stroke="#D1D3D4" stroke-width="3.14" stroke-miterlimit="10"/>
</g>
<defs>
<clipPath id="clip0_55_877">
<rect width="457" height="1115" fill="white" transform="translate(0 -102)"/>
</clipPath>
</defs>
</svg>
