<svg width="187" height="194" viewBox="0 0 187 194" fill="none" xmlns="http://www.w3.org/2000/svg">
<g clip-path="url(#clip0_55_2655)">
<path d="M4.74559 9.47618C7.36651 9.47618 9.49119 7.35487 9.49119 4.73809C9.49119 2.12132 7.36651 0 4.74559 0C2.12467 0 0 2.12132 0 4.73809C0 7.35487 2.12467 9.47618 4.74559 9.47618Z" fill="#F42534"/>
<path d="M47.1631 9.47618C49.784 9.47618 51.9087 7.35487 51.9087 4.73809C51.9087 2.12132 49.784 0 47.1631 0C44.5422 0 42.4175 2.12132 42.4175 4.73809C42.4175 7.35487 44.5422 9.47618 47.1631 9.47618Z" fill="#F42534"/>
<path d="M89.5808 9.47618C92.2017 9.47618 94.3264 7.35487 94.3264 4.73809C94.3264 2.12132 92.2017 0 89.5808 0C86.9599 0 84.8352 2.12132 84.8352 4.73809C84.8352 7.35487 86.9599 9.47618 89.5808 9.47618Z" fill="#F42534"/>
<path d="M132.002 9.47618C134.623 9.47618 136.747 7.35487 136.747 4.73809C136.747 2.12132 134.623 0 132.002 0C129.381 0 127.256 2.12132 127.256 4.73809C127.256 7.35487 129.381 9.47618 132.002 9.47618Z" fill="#F42534"/>
<path d="M174.419 9.47618C177.04 9.47618 179.165 7.35487 179.165 4.73809C179.165 2.12132 177.04 0 174.419 0C171.798 0 169.674 2.12132 169.674 4.73809C169.674 7.35487 171.798 9.47618 174.419 9.47618Z" fill="#F42534"/>
<path d="M4.74559 46.3816C7.36651 46.3816 9.49119 44.2603 9.49119 41.6435C9.49119 39.0267 7.36651 36.9054 4.74559 36.9054C2.12467 36.9054 0 39.0267 0 41.6435C0 44.2603 2.12467 46.3816 4.74559 46.3816Z" fill="#F42534"/>
<path d="M47.1631 46.3816C49.784 46.3816 51.9087 44.2603 51.9087 41.6435C51.9087 39.0267 49.784 36.9054 47.1631 36.9054C44.5422 36.9054 42.4175 39.0267 42.4175 41.6435C42.4175 44.2603 44.5422 46.3816 47.1631 46.3816Z" fill="#F42534"/>
<path d="M89.5808 46.3816C92.2017 46.3816 94.3264 44.2603 94.3264 41.6435C94.3264 39.0267 92.2017 36.9054 89.5808 36.9054C86.9599 36.9054 84.8352 39.0267 84.8352 41.6435C84.8352 44.2603 86.9599 46.3816 89.5808 46.3816Z" fill="#F42534"/>
<path d="M132.002 46.3816C134.623 46.3816 136.747 44.2603 136.747 41.6435C136.747 39.0267 134.623 36.9054 132.002 36.9054C129.381 36.9054 127.256 39.0267 127.256 41.6435C127.256 44.2603 129.381 46.3816 132.002 46.3816Z" fill="#F42534"/>
<path d="M174.419 46.3816C177.04 46.3816 179.165 44.2603 179.165 41.6435C179.165 39.0267 177.04 36.9054 174.419 36.9054C171.798 36.9054 169.674 39.0267 169.674 41.6435C169.674 44.2603 171.798 46.3816 174.419 46.3816Z" fill="#F42534"/>
<path d="M4.74559 83.2871C7.36651 83.2871 9.49119 81.1658 9.49119 78.549C9.49119 75.9322 7.36651 73.8109 4.74559 73.8109C2.12467 73.8109 0 75.9322 0 78.549C0 81.1658 2.12467 83.2871 4.74559 83.2871Z" fill="#F42534"/>
<path d="M47.1631 83.2871C49.784 83.2871 51.9087 81.1658 51.9087 78.549C51.9087 75.9322 49.784 73.8109 47.1631 73.8109C44.5422 73.8109 42.4175 75.9322 42.4175 78.549C42.4175 81.1658 44.5422 83.2871 47.1631 83.2871Z" fill="#F42534"/>
<path d="M89.5808 83.2871C92.2017 83.2871 94.3264 81.1658 94.3264 78.549C94.3264 75.9322 92.2017 73.8109 89.5808 73.8109C86.9599 73.8109 84.8352 75.9322 84.8352 78.549C84.8352 81.1658 86.9599 83.2871 89.5808 83.2871Z" fill="#F42534"/>
<path d="M132.002 83.2871C134.623 83.2871 136.747 81.1658 136.747 78.549C136.747 75.9322 134.623 73.8109 132.002 73.8109C129.381 73.8109 127.256 75.9322 127.256 78.549C127.256 81.1658 129.381 83.2871 132.002 83.2871Z" fill="#F42534"/>
<path d="M174.419 83.2871C177.04 83.2871 179.165 81.1658 179.165 78.549C179.165 75.9322 177.04 73.8109 174.419 73.8109C171.798 73.8109 169.674 75.9322 169.674 78.549C169.674 81.1658 171.798 83.2871 174.419 83.2871Z" fill="#F42534"/>
<path d="M4.74559 120.192C7.36651 120.192 9.49119 118.071 9.49119 115.454C9.49119 112.838 7.36651 110.716 4.74559 110.716C2.12467 110.716 0 112.838 0 115.454C0 118.071 2.12467 120.192 4.74559 120.192Z" fill="#F42534"/>
<path d="M47.1631 120.192C49.784 120.192 51.9087 118.071 51.9087 115.454C51.9087 112.838 49.784 110.716 47.1631 110.716C44.5422 110.716 42.4175 112.838 42.4175 115.454C42.4175 118.071 44.5422 120.192 47.1631 120.192Z" fill="#F42534"/>
<path d="M89.5808 120.192C92.2017 120.192 94.3264 118.071 94.3264 115.454C94.3264 112.838 92.2017 110.716 89.5808 110.716C86.9599 110.716 84.8352 112.838 84.8352 115.454C84.8352 118.071 86.9599 120.192 89.5808 120.192Z" fill="#F42534"/>
<path d="M132.002 120.192C134.623 120.192 136.747 118.071 136.747 115.454C136.747 112.838 134.623 110.716 132.002 110.716C129.381 110.716 127.256 112.838 127.256 115.454C127.256 118.071 129.381 120.192 132.002 120.192Z" fill="#F42534"/>
<path d="M174.419 120.192C177.04 120.192 179.165 118.071 179.165 115.454C179.165 112.838 177.04 110.716 174.419 110.716C171.798 110.716 169.674 112.838 169.674 115.454C169.674 118.071 171.798 120.192 174.419 120.192Z" fill="#F42534"/>
<path d="M4.74559 157.098C7.36651 157.098 9.49119 154.977 9.49119 152.36C9.49119 149.743 7.36651 147.622 4.74559 147.622C2.12467 147.622 0 149.743 0 152.36C0 154.977 2.12467 157.098 4.74559 157.098Z" fill="#F42534"/>
<path d="M47.1631 157.098C49.784 157.098 51.9087 154.977 51.9087 152.36C51.9087 149.743 49.784 147.622 47.1631 147.622C44.5422 147.622 42.4175 149.743 42.4175 152.36C42.4175 154.977 44.5422 157.098 47.1631 157.098Z" fill="#F42534"/>
<path d="M89.5808 157.098C92.2017 157.098 94.3264 154.977 94.3264 152.36C94.3264 149.743 92.2017 147.622 89.5808 147.622C86.9599 147.622 84.8352 149.743 84.8352 152.36C84.8352 154.977 86.9599 157.098 89.5808 157.098Z" fill="#F42534"/>
<path d="M132.002 157.098C134.623 157.098 136.747 154.977 136.747 152.36C136.747 149.743 134.623 147.622 132.002 147.622C129.381 147.622 127.256 149.743 127.256 152.36C127.256 154.977 129.381 157.098 132.002 157.098Z" fill="#F42534"/>
<path d="M174.419 157.098C177.04 157.098 179.165 154.977 179.165 152.36C179.165 149.743 177.04 147.622 174.419 147.622C171.798 147.622 169.674 149.743 169.674 152.36C169.674 154.977 171.798 157.098 174.419 157.098Z" fill="#F42534"/>
<path d="M4.74559 194.003C7.36651 194.003 9.49119 191.882 9.49119 189.265C9.49119 186.648 7.36651 184.527 4.74559 184.527C2.12467 184.527 0 186.648 0 189.265C0 191.882 2.12467 194.003 4.74559 194.003Z" fill="#F42534"/>
<path d="M47.1631 194.003C49.784 194.003 51.9087 191.882 51.9087 189.265C51.9087 186.648 49.784 184.527 47.1631 184.527C44.5422 184.527 42.4175 186.648 42.4175 189.265C42.4175 191.882 44.5422 194.003 47.1631 194.003Z" fill="#F42534"/>
<path d="M89.5808 194.003C92.2017 194.003 94.3264 191.882 94.3264 189.265C94.3264 186.648 92.2017 184.527 89.5808 184.527C86.9599 184.527 84.8352 186.648 84.8352 189.265C84.8352 191.882 86.9599 194.003 89.5808 194.003Z" fill="#F42534"/>
<path d="M132.002 194.003C134.623 194.003 136.747 191.882 136.747 189.265C136.747 186.648 134.623 184.527 132.002 184.527C129.381 184.527 127.256 186.648 127.256 189.265C127.256 191.882 129.381 194.003 132.002 194.003Z" fill="#F42534"/>
<path d="M174.419 194.003C177.04 194.003 179.165 191.882 179.165 189.265C179.165 186.648 177.04 184.527 174.419 184.527C171.798 184.527 169.674 186.648 169.674 189.265C169.674 191.882 171.798 194.003 174.419 194.003Z" fill="#F42534"/>
</g>
<defs>
<clipPath id="clip0_55_2655">
<rect width="264" height="194" fill="white"/>
</clipPath>
</defs>
</svg>
