<?xml version="1.0" encoding="UTF-8"?>
<svg id="Layer_1" xmlns="http://www.w3.org/2000/svg" version="1.1" viewBox="0 0 322 321">
  <!-- Generator: Adobe Illustrator 29.6.0, SVG Export Plug-In . SVG Version: 2.1.1 Build 207)  -->
  <defs>
    <style>
      .st0 {
        fill: #00b4ad;
      }
    </style>
  </defs>
  <path class="st0" d="M161.1.6c-13.3,0-26.1,1.6-38.5,4.6h76.9c-12.3-3-25.2-4.6-38.5-4.6Z"/>
  <path class="st0" d="M73.4,26.6h175.4c-5.6-3.7-11.5-7-17.6-10H91.1c-6.1,3-12,6.3-17.6,10Z"/>
  <path class="st0" d="M47.2,48h228c-3.5-3.5-7.1-6.8-10.9-10H58c-3.8,3.2-7.4,6.5-10.9,10Z"/>
  <path class="st0" d="M29.3,69.5h263.7c-2.4-3.4-4.9-6.8-7.6-10H36.9c-2.6,3.2-5.2,6.6-7.6,10Z"/>
  <path class="st0" d="M16.7,90.9h288.8c-1.7-3.4-3.4-6.7-5.3-10H22.1c-1.9,3.3-3.7,6.6-5.3,10Z"/>
  <path class="st0" d="M8.2,112.3h305.9c-1.1-3.4-2.3-6.7-3.5-10H11.7c-1.3,3.3-2.5,6.6-3.5,10Z"/>
  <path class="st0" d="M3,133.7h316.3c-.6-3.4-1.3-6.7-2-10H5c-.8,3.3-1.5,6.6-2,10Z"/>
  <path class="st0" d="M.8,155.1h320.7c-.1-3.4-.3-6.7-.7-10H1.5c-.3,3.3-.5,6.6-.7,10Z"/>
  <path class="st0" d="M1.5,176.5h319.4c.3-3.3.5-6.6.7-10H.8c.1,3.4.3,6.7.7,10Z"/>
  <path class="st0" d="M5,197.9h312.2c.8-3.3,1.5-6.6,2-10H3c.6,3.4,1.3,6.7,2,10Z"/>
  <path class="st0" d="M11.7,219.3h298.8c1.3-3.3,2.5-6.6,3.5-10H8.2c1.1,3.4,2.3,6.7,3.5,10Z"/>
  <path class="st0" d="M22.1,240.7h278.2c1.9-3.3,3.7-6.6,5.3-10H16.7c1.7,3.4,3.4,6.7,5.3,10Z"/>
  <path class="st0" d="M36.9,262.1h248.6c2.6-3.2,5.2-6.6,7.6-10H29.3c2.4,3.4,4.9,6.8,7.6,10Z"/>
  <path class="st0" d="M58,283.5h206.2c3.8-3.2,7.4-6.5,10.9-10H47.2c3.5,3.5,7.1,6.8,10.9,10Z"/>
  <path class="st0" d="M91.1,305h140.1c6.1-3,12-6.3,17.6-10H73.4c5.6,3.7,11.5,7,17.6,10Z"/>
  <path class="st0" d="M161.1,321c13.3,0,26.1-1.6,38.5-4.6h-76.9c12.3,3,25.2,4.6,38.5,4.6Z"/>
</svg>