<?xml version="1.0" encoding="UTF-8"?>
<svg id="Layer_1" xmlns="http://www.w3.org/2000/svg" version="1.1" viewBox="0 0 188.6 159.1">
  <!-- Generator: Adobe Illustrator 29.6.0, SVG Export Plug-In . SVG Version: 2.1.1 Build 207)  -->
  <defs>
    <style>
      .st0 {
        fill: none;
      }

      .st1 {
        fill: #007481;
      }
    </style>
  </defs>
  <path class="st0" d="M141,79.6c-13.7-8.1-29.7-12.7-46.7-12.7s-33,4.6-46.7,12.7c13.7,8.1,29.7,12.7,46.7,12.7s33-4.6,46.7-12.7Z"/>
  <path class="st0" d="M142.9,78.4C169.1,62.1,186.6,33.1,186.6,0H2c0,33.1,17.5,62.1,43.7,78.4,14.2-8.6,30.8-13.5,48.6-13.5s34.4,4.9,48.6,13.5Z"/>
  <path class="st0" d="M142.9,80.7c-14.2,8.6-30.8,13.5-48.6,13.5s-34.4-4.9-48.6-13.5C19.5,97,2,126.1,2,159.1h184.6c0-33.1-17.5-62.1-43.7-78.4Z"/>
  <path class="st1" d="M45.7,80.7c-.6-.4-1.3-.8-1.9-1.2C17.5,96.3,0,125.7,0,159.1h2c0-33.1,17.5-62.1,43.7-78.4Z"/>
  <path class="st1" d="M186.6,159.1h2c0-33.4-17.5-62.8-43.8-79.6-.6.4-1.3.8-1.9,1.2,26.2,16.3,43.7,45.3,43.7,78.4Z"/>
  <path class="st1" d="M141,79.6c.7-.4,1.3-.8,1.9-1.2-14.2-8.6-30.8-13.5-48.6-13.5s-34.4,4.9-48.6,13.5c.6.4,1.3.8,1.9,1.2,13.7-8.1,29.7-12.7,46.7-12.7s33,4.6,46.7,12.7Z"/>
  <path class="st1" d="M142.9,78.4c.6.4,1.3.8,1.9,1.2C171.1,62.8,188.6,33.4,188.6,0h-2c0,33.1-17.5,62.1-43.7,78.4Z"/>
  <path class="st1" d="M142.9,80.7c-.6-.4-1.3-.8-1.9-1.2-13.7,8.1-29.7,12.7-46.7,12.7s-33-4.6-46.7-12.7c-.7.4-1.3.8-1.9,1.2,14.2,8.6,30.8,13.5,48.6,13.5s34.4-4.9,48.6-13.5Z"/>
  <path class="st1" d="M2,0H0c0,33.4,17.5,62.8,43.8,79.6.6-.4,1.3-.8,1.9-1.2C19.5,62.1,2,33.1,2,0Z"/>
  <path class="st1" d="M141,79.6c.7.4,1.3.8,1.9,1.2.6-.4,1.3-.8,1.9-1.2-.6-.4-1.3-.8-1.9-1.2-.6.4-1.3.8-1.9,1.2Z"/>
  <path class="st1" d="M47.6,79.6c-.7-.4-1.3-.8-1.9-1.2-.6.4-1.3.8-1.9,1.2.6.4,1.3.8,1.9,1.2.6-.4,1.3-.8,1.9-1.2Z"/>
  <polygon class="st1" points="186.6 0 186.6 0 2 0 2 0 186.6 0"/>
  <polygon class="st1" points="2 0 0 0 0 0 2 0 2 0"/>
  <polygon class="st1" points="188.6 0 188.6 0 186.6 0 186.6 0 188.6 0"/>
</svg>