<?xml version="1.0" encoding="UTF-8"?>
<svg id="Layer_1" xmlns="http://www.w3.org/2000/svg" version="1.1" viewBox="0 0 553 553">
  <!-- Generator: Adobe Illustrator 29.6.0, SVG Export Plug-In . SVG Version: 2.1.1 Build 207)  -->
  <defs>
    <style>
      .st0 {
        fill: #faa400;
      }
    </style>
  </defs>
  <path class="st0" d="M276.5,553c-73.9,0-143.3-28.8-195.5-81C28.8,419.8,0,350.4,0,276.5S28.8,133.2,81,81C133.2,28.8,202.6,0,276.5,0s143.3,28.8,195.5,81c52.2,52.2,81,121.7,81,195.5s-28.8,143.3-81,195.5-121.7,81-195.5,81ZM276.5,43c-62.4,0-121,24.3-165.1,68.4-44.1,44.1-68.4,102.7-68.4,165.1s24.3,121,68.4,165.1,102.7,68.4,165.1,68.4,121-24.3,165.1-68.4,68.4-102.7,68.4-165.1-24.3-121-68.4-165.1c-44.1-44.1-102.7-68.4-165.1-68.4Z"/>
</svg>